<?xml version="1.0" encoding="UTF-8" standalone="no"?>
<!--?xml version="1.0" encoding="utf-8"?-->

<!-- Generator: Adobe Illustrator 18.1.1, SVG Export Plug-In . SVG Version: 6.00 Build 0)  -->

<svg
   version="1.1"
   id="_x32_"
   x="0px"
   y="0px"
   viewBox="0 0 512 512"
   style="width: 256px; height: 256px; opacity: 1;"
   xml:space="preserve"
   sodipodi:docname="WSOFTConfig.svg"
   inkscape:version="1.1 (c68e22c387, 2021-05-23)"
   xmlns:inkscape="http://www.inkscape.org/namespaces/inkscape"
   xmlns:sodipodi="http://sodipodi.sourceforge.net/DTD/sodipodi-0.dtd"
   xmlns="http://www.w3.org/2000/svg"
   xmlns:svg="http://www.w3.org/2000/svg"><defs
   id="defs848" /><sodipodi:namedview
   id="namedview846"
   pagecolor="#ffffff"
   bordercolor="#666666"
   borderopacity="1.0"
   inkscape:pageshadow="2"
   inkscape:pageopacity="0.0"
   inkscape:pagecheckerboard="0"
   showgrid="false"
   inkscape:zoom="1.1062354"
   inkscape:cx="209.2683"
   inkscape:cy="306.8967"
   inkscape:window-width="1920"
   inkscape:window-height="1009"
   inkscape:window-x="-8"
   inkscape:window-y="-8"
   inkscape:window-maximized="1"
   inkscape:current-layer="g843" />
<style
   type="text/css"
   id="style837">
	.st0{fill:#4B4B4B;}
</style>
<g
   id="g843"
   style="fill:#00000f;fill-opacity:1">
	<path
   class="st0"
   d="m 499.139,318.571 -37.178,-5.407 c -2.329,-0.178 -4.336,-1.642 -5.228,-3.8 l -12.054,-29.086 c -0.901,-2.15 -0.526,-4.613 1,-6.379 l 22.243,-29.88 c 3.533,-4.141 3.301,-10.314 -0.554,-14.168 l -17.602,-17.594 c -3.846,-3.854 -10.029,-4.104 -14.159,-0.553 l -29.889,22.233 c -1.758,1.518 -4.238,1.91 -6.38,1.018 l -29.094,-12.062 c -2.151,-0.883 -3.622,-2.926 -3.81,-5.228 l -5.389,-37.169 c -0.428,-5.442 -4.96,-9.635 -10.402,-9.635 H 325.75 c -5.45,0 -9.983,4.193 -10.402,9.635 l -5.407,37.169 c -0.17,2.32 -1.642,4.345 -3.792,5.228 l -29.103,12.062 c -2.151,0.892 -4.613,0.5 -6.388,-1.018 l -29.872,-22.233 c -4.13,-3.542 -10.304,-3.302 -14.167,0.553 l -17.594,17.594 c -3.854,3.854 -4.086,10.028 -0.554,14.168 l 22.234,29.888 c 1.508,1.758 1.91,4.229 1.009,6.371 l -12.054,29.086 c -0.874,2.159 -2.908,3.622 -5.219,3.81 l -37.195,5.398 c -5.425,0.429 -9.618,4.961 -9.618,10.412 v 24.883 c 0,5.442 4.194,9.993 9.618,10.403 l 37.195,5.398 c 2.311,0.188 4.345,1.659 5.219,3.81 l 12.054,29.086 c 0.901,2.159 0.5,4.63 -1.009,6.388 l -22.234,29.889 c -3.533,4.14 -3.301,10.295 0.554,14.168 l 17.594,17.594 c 3.863,3.854 10.037,4.086 14.167,0.544 l 29.872,-22.243 c 1.775,-1.498 4.237,-1.9 6.388,-0.998 l 29.103,12.044 c 2.151,0.902 3.622,2.918 3.802,5.246 l 5.398,37.169 c 0.428,5.433 4.952,9.636 10.402,9.636 h 24.893 c 5.451,0 9.974,-4.203 10.402,-9.636 l 5.389,-37.169 c 0.188,-2.328 1.659,-4.344 3.81,-5.246 l 29.103,-12.044 c 2.142,-0.902 4.622,-0.5 6.379,0.998 l 29.881,22.243 c 4.13,3.542 10.314,3.31 14.159,-0.544 l 17.602,-17.594 c 3.864,-3.873 4.087,-10.028 0.554,-14.168 L 445.68,408.952 c -1.499,-1.758 -1.9,-4.229 -1,-6.388 l 12.054,-29.086 c 0.892,-2.151 2.899,-3.622 5.228,-3.81 l 37.178,-5.398 c 5.434,-0.41 9.627,-4.961 9.627,-10.403 v -24.883 c -10e-4,-5.452 -4.194,-9.984 -9.628,-10.413 z m -120.046,63.757 c -10.93,10.912 -25.445,16.926 -40.898,16.926 -15.444,0 -29.978,-6.014 -40.898,-16.926 -10.92,-10.938 -16.943,-25.454 -16.943,-40.907 0,-15.444 6.022,-29.969 16.943,-40.89 10.92,-10.939 25.454,-16.934 40.898,-16.934 15.454,0 29.969,5.995 40.898,16.934 10.92,10.92 16.934,25.446 16.934,40.89 0,15.453 -6.013,29.969 -16.934,40.907 z"
   style="fill:#5a82e3;fill-opacity:1"
   id="path839" />
	<path
   class="st0"
   d="m 187.351,252.156 c 4.032,-1.445 6.254,-5.746 5.122,-9.868 l -5.898,-28.854 c -0.472,-1.767 0.072,-3.649 1.419,-4.88 l 18.263,-16.621 c 1.338,-1.222 3.284,-1.588 4.97,-0.946 l 27.961,8.466 c 3.989,1.508 8.485,-0.294 10.306,-4.166 l 8.297,-17.656 c 1.837,-3.881 0.366,-8.485 -3.346,-10.591 L 230.106,150.9 c -1.58,-0.91 -2.535,-2.632 -2.436,-4.452 l 1.16,-24.66 c 0.098,-1.829 1.186,-3.444 2.838,-4.194 l 26.008,-13.874 c 3.898,-1.74 5.781,-6.218 4.336,-10.215 l -6.603,-18.371 c -1.454,-4.024 -5.755,-6.254 -9.876,-5.121 l -28.863,5.879 c -1.767,0.5 -3.632,-0.053 -4.871,-1.41 L 195.185,56.23 c -1.24,-1.357 -1.614,-3.265 -0.955,-4.978 l 8.468,-27.944 c 1.507,-4.006 -0.294,-8.494 -4.175,-10.306 L 180.875,4.696 C 177.003,2.875 172.381,4.33 170.267,8.05 l -16.131,24.34 c -0.902,1.58 -2.623,2.533 -4.444,2.445 l -24.66,-1.169 c -1.82,-0.08 -3.462,-1.205 -4.202,-2.847 L 106.974,4.821 C 105.216,0.923 100.755,-0.961 96.74,0.485 L 78.379,7.096 c -4.024,1.446 -6.254,5.738 -5.112,9.859 l 5.888,28.872 c 0.482,1.748 -0.062,3.64 -1.418,4.862 l -18.264,16.63 c -1.356,1.222 -3.274,1.597 -4.987,0.955 L 26.542,59.798 c -3.988,-1.516 -8.476,0.304 -10.305,4.175 L 7.939,81.622 c -1.82,3.872 -0.366,8.494 3.346,10.599 l 24.339,16.14 c 1.588,0.902 2.534,2.615 2.436,4.435 l -1.16,24.66 c -0.071,1.838 -1.187,3.444 -2.837,4.193 L 8.055,155.522 c -3.9,1.749 -5.782,6.219 -4.336,10.216 l 6.611,18.37 c 1.445,4.024 5.746,6.254 9.859,5.131 l 28.881,-5.906 c 1.749,-0.482 3.64,0.071 4.862,1.427 l 16.612,18.255 c 1.24,1.356 1.598,3.283 0.954,4.987 l -8.466,27.944 c -1.499,3.997 0.304,8.485 4.175,10.305 l 17.648,8.297 c 3.881,1.829 8.493,0.357 10.608,-3.346 l 16.122,-24.348 c 0.91,-1.57 2.623,-2.534 4.452,-2.428 l 24.661,1.16 c 1.829,0.09 3.453,1.178 4.211,2.846 l 13.847,25.989 c 1.767,3.9 6.219,5.8 10.233,4.354 z m -39.122,-79.86 c -11.394,4.095 -23.714,3.524 -34.68,-1.633 -10.965,-5.157 -19.245,-14.275 -23.358,-25.678 -4.095,-11.402 -3.524,-23.714 1.634,-34.67 5.156,-10.974 14.283,-19.254 25.677,-23.357 11.402,-4.105 23.714,-3.534 34.67,1.641 10.956,5.139 19.254,14.258 23.366,25.66 4.096,11.403 3.516,23.706 -1.632,34.672 -5.175,10.955 -14.285,19.252 -25.677,23.365 z"
   style="fill:#443be8;fill-opacity:1"
   id="path841" />
</g>
</svg>
